<svg viewBox="0 0 170 68" fill="none" xmlns="http://www.w3.org/2000/svg" alt="Logo">
                    <path d="M35.2547 14.9171C37.2887 13.9588 37.2145 10.4969 34.1931 7.69628C31.1717 4.89561 18.4625 0.111448 7.46076 11.0467C-3.54098 21.9819 -0.0147816 39.2762 10.0664 44.677C20.1402 50.0777 31.773 48.02 37.2887 41.438C43.4503 34.0909 38.3503 32.2263 34.6014 34.2172C30.8525 36.2081 24.4088 40.814 18.8708 38.7488C13.3328 36.6836 10.2743 31.8028 10.8459 25.9861C11.4175 20.1693 15.3372 13.6171 22.3376 12.8742C31.387 11.9159 31.9289 16.4772 35.2547 14.9171Z" fill="#768f88"></path>
                    <path d="M63.4642 31.6617C61.2075 22.0339 52.7594 20.615 48.3498 20.4664C39.8127 20.1693 32.2481 27.3455 33.8219 36.1858C35.3957 45.0261 42.9529 50.6275 51.0965 49.9366C59.2476 49.2457 65.721 41.2894 63.4642 31.6617ZM53.5537 41.2894C50.6066 43.2506 46.1153 41.7129 43.9328 38.6373C41.7948 35.6212 42.5594 29.9902 47.1695 28.6159C49.5005 27.925 52.1507 28.497 54.504 31.3497C56.8647 34.2023 56.5009 39.3282 53.5537 41.2894Z" fill="#768f88"></path>
                    <path d="M58.3717 18.4532C57.3918 17.688 56.9093 11.0689 67.6141 6.31447C78.5638 1.45602 88.8975 5.57902 91.4512 14.2262C94.0049 22.8733 90.1743 27.6872 83.597 31.3199C83.597 31.3199 91.5477 42.0249 103.128 42.8569C114.709 43.6889 118.347 41.334 120.403 39.5659C122.459 37.7978 129.334 40.2568 123.937 46.1478C118.54 52.0389 103.811 50.6646 99.8844 49.5874C95.9573 48.5102 84.5695 44.5804 78.6826 32.6942C78.6826 32.6942 77.4058 33.1845 76.4258 33.2811C76.4258 33.2811 77.6062 40.7471 77.7027 41.9283C77.7992 43.1095 78.4896 46.6456 74.5625 47.2325C70.6355 47.8193 69.0691 45.4644 68.4752 41.8317C67.8887 38.199 66.0551 25.05 66.3149 22.2865C66.6193 19.0178 70.732 16.2765 73.0852 21.1944L74.4586 25.7186C74.4586 25.7186 84.3839 26.5209 85.156 19.6269C85.9651 12.4284 72.5582 11.0243 66.6638 14.2707C60.7695 17.5171 61.0368 20.5481 58.3717 18.4532Z" fill="#768f88"></path>
                    <path d="M118.139 10.8388C118.614 9.37527 117.07 5.04427 109.683 4.27167C101.621 3.43221 95.497 10.4673 95.8459 14.9246C96.1725 19.1813 99.3795 22.1454 103.648 22.658C107.917 23.1706 116.016 22.0711 117.048 26.417C118.079 30.7629 111.228 30.9114 109.683 30.6886C108.139 30.4657 106.298 30.0274 104.828 28.9205C103.359 27.8136 100.189 24.5747 97.7611 26.417C95.3336 28.2594 96.217 32.6052 101.807 35.6288C107.404 38.6523 116.751 37.7683 119.921 34.9676C123.083 32.1669 123.454 29.4405 123.38 26.6399C123.306 23.8392 122.719 20.0059 116.387 17.3538C110.055 14.7017 105.274 17.3538 104.168 14.4789C103.062 11.6039 107.939 10.4599 110.574 10.7942C113.002 11.1062 115.006 12.7331 116.172 12.488C117.04 12.3171 117.79 11.9085 118.139 10.8388Z" fill="#768f88"></path>
                    <path d="M169.57 23.0665C168.293 8.13455 157.447 4.0487 147.581 4.2047C139.266 4.33842 126.966 8.77343 126.966 25.7186C126.966 42.4929 144.337 45.3678 150.818 44.7735C157.298 44.1867 170.846 37.9984 169.57 23.0665ZM150.55 37.211C143.572 37.9464 135.866 34.128 135.866 25.2506C135.866 16.1651 143.134 11.7524 148.004 11.7524C153.661 11.7524 160.825 16.9897 160.825 23.4305C160.832 29.9679 157.528 36.4755 150.55 37.211Z" fill="#FCB416"></path>
                    <path d="M44.7568 58.4202C45.0908 58.4202 45.3878 58.4573 45.6328 58.539C45.8777 58.6207 46.0856 58.7247 46.2489 58.8733C46.4122 59.0145 46.531 59.1928 46.6127 59.3933C46.6943 59.5939 46.7315 59.8242 46.7315 60.0768C46.7315 60.3219 46.6869 60.5522 46.5978 60.7602C46.5087 60.9682 46.3825 61.1465 46.2192 61.2877C46.0485 61.4363 45.848 61.5551 45.6031 61.6368C45.3581 61.7186 45.076 61.7631 44.7494 61.7631H43.8956V63.7541H43.183V58.4276H44.7568V58.4202ZM44.7568 61.1763C44.9646 61.1763 45.1428 61.1465 45.2987 61.0945C45.4546 61.0425 45.5882 60.9608 45.6922 60.8642C45.7961 60.7677 45.8777 60.6488 45.9371 60.5151C45.9965 60.3814 46.0188 60.2328 46.0188 60.0619C46.0188 59.7202 45.9149 59.4602 45.707 59.2671C45.4991 59.0739 45.1799 58.9773 44.7568 58.9773H43.9031V61.1688H44.7568V61.1763Z" fill="#768f88"></path>
                    <path d="M50.5917 63.7391H49.8716V58.4126H50.5917V63.7391Z" fill="#768f88"></path>
                    <path d="M57.7258 58.6875C57.7258 58.7692 57.7035 58.8509 57.6516 58.9252L54.6376 63.1597H57.6738V63.7465H53.6874V63.4642C53.6874 63.4271 53.6948 63.3899 53.7096 63.3528C53.7245 63.3157 53.7393 63.2859 53.7616 63.2562L56.7756 59.0144H53.8284V58.4275H57.7184V58.6875H57.7258Z" fill="#768f88"></path>
                    <path d="M64.4218 58.6875C64.4218 58.7692 64.3996 58.8509 64.3476 58.9252L61.3336 63.1597H64.3699V63.7465H60.3834V63.4642C60.3834 63.4271 60.3909 63.3899 60.4057 63.3528C60.4205 63.3157 60.4354 63.2859 60.4577 63.2562L63.4716 59.0144H60.5245V58.4275H64.4144V58.6875H64.4218Z" fill="#768f88"></path>
                    <path d="M71.8974 63.7392H71.3406C71.2738 63.7392 71.2218 63.7243 71.1847 63.6872C71.1476 63.6574 71.1179 63.6129 71.0956 63.5609L70.5982 62.2757H68.2078L67.7105 63.5609C67.6956 63.6054 67.6659 63.6426 67.6288 63.6797C67.5843 63.7169 67.5323 63.7317 67.4729 63.7317H66.9161L69.0467 58.4053H69.7742L71.8974 63.7392ZM70.3978 61.7631L69.5664 59.5939C69.5441 59.527 69.5144 59.4527 69.4921 59.371C69.4624 59.2893 69.4402 59.1927 69.4105 59.0962C69.3585 59.2967 69.3065 59.4676 69.2546 59.5939L68.4231 61.7557H70.3978V61.7631Z" fill="#768f88"></path>
                    <path d="M80.2712 58.4202C80.6053 58.4202 80.9022 58.4573 81.1472 58.539C81.3922 58.6207 81.6 58.7247 81.7633 58.8733C81.9267 59.0145 82.0454 59.1928 82.1271 59.3933C82.2088 59.5939 82.2459 59.8242 82.2459 60.0768C82.2459 60.3219 82.2013 60.5522 82.1122 60.7602C82.0232 60.9682 81.897 61.1465 81.7336 61.2877C81.5629 61.4363 81.3625 61.5551 81.1175 61.6368C80.8725 61.7186 80.5904 61.7631 80.2638 61.7631H79.4101V63.7541H78.6974V58.4276H80.2712V58.4202ZM80.2712 61.1763C80.4791 61.1763 80.6572 61.1465 80.8131 61.0945C80.969 61.0425 81.1026 60.9608 81.2066 60.8642C81.3105 60.7677 81.3922 60.6488 81.4515 60.5151C81.5109 60.3814 81.5332 60.2328 81.5332 60.0619C81.5332 59.7202 81.4293 59.4602 81.2214 59.2671C81.0136 59.0739 80.6943 58.9773 80.2712 58.9773H79.4175V61.1688H80.2712V61.1763Z" fill="#768f88"></path>
                    <path d="M88.6673 63.1522V63.7391H85.3861V58.4126H88.6673V58.9995H86.1062V60.7675H88.1774V61.3321H86.1062V63.1522H88.6673Z" fill="#768f88"></path>
                    <path d="M100.085 58.4202L97.9171 63.7466H97.2712L95.1035 58.4202H95.6751C95.7419 58.4202 95.7939 58.435 95.831 58.4722C95.8681 58.5019 95.8978 58.5465 95.9201 58.5985L97.4197 62.35C97.4494 62.4317 97.4865 62.5283 97.5162 62.6249C97.5459 62.7215 97.5756 62.8255 97.5978 62.9369C97.6201 62.8255 97.6498 62.7215 97.6795 62.6249C97.7092 62.5283 97.7389 62.4317 97.7686 62.35L99.2607 58.5985C99.2756 58.5539 99.3053 58.5167 99.3498 58.4796C99.3943 58.4425 99.4463 58.4276 99.5057 58.4276H100.085V58.4202Z" fill="#768f88"></path>
                    <path d="M106.937 63.7392H106.38C106.313 63.7392 106.261 63.7243 106.224 63.6872C106.187 63.6574 106.157 63.6129 106.135 63.5609L105.638 62.2757H103.255L102.757 63.5609C102.742 63.6054 102.713 63.6426 102.668 63.6797C102.624 63.7169 102.572 63.7317 102.512 63.7317H101.955L104.079 58.4053H104.806L106.937 63.7392ZM105.437 61.7631L104.606 59.5939C104.583 59.527 104.554 59.4527 104.531 59.371C104.502 59.2893 104.479 59.1927 104.45 59.0962C104.398 59.2967 104.346 59.4676 104.294 59.5939L103.462 61.7557H105.437V61.7631Z" fill="#768f88"></path>
                    <path d="M112.942 59.0218H111.22V63.7391H110.5V59.0218H108.778V58.4126H112.942V59.0218Z" fill="#768f88"></path>
                    <path d="M119.883 63.7391H119.245C119.111 63.7391 119.015 63.6871 118.955 63.5831L117.575 61.6813C117.53 61.6219 117.486 61.5773 117.441 61.555C117.389 61.5253 117.315 61.5178 117.218 61.5178H116.669V63.7391H115.956V58.4126H117.463C117.797 58.4126 118.087 58.4497 118.332 58.5166C118.577 58.5835 118.777 58.68 118.941 58.8138C119.096 58.94 119.215 59.0961 119.297 59.2818C119.371 59.4675 119.416 59.6681 119.416 59.8909C119.416 60.0767 119.386 60.2549 119.327 60.4184C119.267 60.5818 119.178 60.7304 119.067 60.8567C118.955 60.9904 118.814 61.0944 118.658 61.191C118.495 61.2801 118.31 61.3544 118.109 61.399C118.198 61.451 118.28 61.5253 118.347 61.6293L119.883 63.7391ZM117.426 60.9978C117.634 60.9978 117.82 60.9755 117.976 60.9235C118.131 60.8715 118.265 60.7973 118.376 60.7081C118.48 60.619 118.562 60.5075 118.621 60.3738C118.673 60.2475 118.703 60.0989 118.703 59.9429C118.703 59.6235 118.599 59.3858 118.391 59.2298C118.183 59.0738 117.872 58.9846 117.456 58.9846H116.669V60.9978H117.426Z" fill="#768f88"></path>
                    <path d="M127.158 63.7392H126.602C126.535 63.7392 126.483 63.7243 126.446 63.6872C126.409 63.6575 126.379 63.6129 126.357 63.5609L125.859 62.2757H123.476L122.979 63.5609C122.964 63.6055 122.934 63.6426 122.89 63.6798C122.845 63.7169 122.793 63.7318 122.734 63.7318H122.177L124.3 58.4053H125.028L127.158 63.7392ZM124.664 58.0041C124.315 58.0041 124.041 57.9224 123.848 57.759C123.655 57.5956 123.551 57.3504 123.551 57.0161H124.063C124.063 57.1053 124.07 57.187 124.093 57.2613C124.115 57.3356 124.145 57.395 124.196 57.4396C124.241 57.4916 124.308 57.5287 124.382 57.551C124.456 57.5733 124.553 57.5881 124.664 57.5881C124.887 57.5881 125.043 57.5361 125.132 57.4396C125.221 57.343 125.265 57.1944 125.265 57.0161H125.778C125.778 57.3281 125.681 57.5733 125.488 57.7441C125.288 57.9224 125.013 58.0041 124.664 58.0041ZM125.659 61.7631L124.827 59.5939C124.805 59.5271 124.776 59.4528 124.753 59.3711C124.724 59.2893 124.701 59.1928 124.672 59.0962C124.62 59.2968 124.568 59.4676 124.516 59.5939L123.684 61.7557H125.659V61.7631Z" fill="#768f88"></path>
                </svg>